<?xml version="1.0" encoding="utf-8"?>
<!-- Generator: Adobe Illustrator 18.1.1, SVG Export Plug-In . SVG Version: 6.00 Build 0)  -->
<!DOCTYPE svg PUBLIC "-//W3C//DTD SVG 1.1//EN" "http://www.w3.org/Graphics/SVG/1.1/DTD/svg11.dtd">
<svg version="1.1" id="Layer_1" xmlns="http://www.w3.org/2000/svg" xmlns:xlink="http://www.w3.org/1999/xlink" x="0px" y="0px"
	 viewBox="0 0 612 792" enable-background="new 0 0 612 792" xml:space="preserve">
<path d="M286.6,524.5c-15.7,0-28.4,12.7-28.4,28.4c0,15.7,12.7,28.4,28.4,28.4c15.6,0,28.4-12.7,28.4-28.4
	C315,537.3,302.2,524.5,286.6,524.5z"/>
<path d="M384.8,524.5c-15.7,0-28.4,12.7-28.4,28.4c0,15.7,12.7,28.4,28.4,28.4s28.4-12.7,28.4-28.4
	C413.2,537.3,400.5,524.5,384.8,524.5z"/>
<path d="M483,524.5c-15.7,0-28.4,12.7-28.4,28.4c0,15.7,12.7,28.4,28.4,28.4c15.6,0,28.4-12.7,28.4-28.4
	C511.4,537.3,498.7,524.5,483,524.5z"/>
<polygon points="201.9,325.6 237.8,325.6 237.8,250.1 237.7,250.1 213,209.9 182.5,228.6 201.9,260.3 "/>
<path d="M483,473.9H286.6c-42.7,0-77.5,34.8-77.5,77.5c0,42.7,34.8,77.5,77.5,77.5H483c42.7,0,77.5-34.8,77.5-77.5
	C560.5,508.7,525.8,473.9,483,473.9z M483,604.3H286.6c-29.2,0-52.9-23.7-52.9-52.9c0-29.2,23.7-53,52.9-53H483
	c29.2,0,52.9,23.7,52.9,53C536,580.6,512.2,604.3,483,604.3z"/>
<path d="M500.7,334.2V211.5v-49.1H427h-36.8h-61.4l-61.3,171.9h-132v93.6h-25c-8.2-53.1-53.7-94-109-94V369
	c41.7,0,75.7,33.9,75.7,75.6c0,41.7-34,75.7-75.7,75.7v35.1c55.3,0,100.9-40.9,109-94h25v93.8H197c-0.1-1.3-0.2-2.5-0.2-3.8
	c0-49.5,40.3-89.8,89.8-89.8H483c49.5,0,89.8,40.3,89.8,89.8c0,1.3-0.1,2.6-0.2,3.8h38.6v-221H500.7z M451.6,334.2h-23v73.7h-87
	v-73.7h-25.1l43.8-135h91.2V334.2z M580.5,421.7h-61.4v-12.3h61.4V421.7z M580.5,397.2h-61.4v-12.3h61.4V397.2z M580.5,372.6h-61.4
	v-12.3h61.4V372.6z"/>
</svg>
