<?xml version="1.0" encoding="utf-8"?>
<!-- Generator: Adobe Illustrator 18.1.1, SVG Export Plug-In . SVG Version: 6.00 Build 0)  -->
<!DOCTYPE svg PUBLIC "-//W3C//DTD SVG 1.1//EN" "http://www.w3.org/Graphics/SVG/1.1/DTD/svg11.dtd">
<svg version="1.1" id="Layer_1" xmlns="http://www.w3.org/2000/svg" xmlns:xlink="http://www.w3.org/1999/xlink" x="0px" y="0px"
	 viewBox="0 0 841.9 595.3" enable-background="new 0 0 841.9 595.3" xml:space="preserve">
<path fill="#010101" d="M498.3,174.2V93.7c17.6,0,15-11.9,15-11.9c0-6.6-8.3-11.9-18.6-11.9H347.4c-10.3,0-18.6,5.3-18.6,11.9
	c0,0-2.5,11.9,15,11.9v80.5c-34.8,6.6-60.9,35.5-60.9,70.2v179.1c0,30.4,20.1,56.3,48.4,66.7v36.7h179.7v-36.7
	c28.3-10.4,48.4-36.3,48.4-66.7V244.4C559.2,209.7,533.1,180.8,498.3,174.2z M389.5,106.7h96.1v54h-96.1V106.7z M468.7,506.1h-95.4
	c-8.1,0-15.1-4.5-18.2-11.1c1.2,0.1,2.5,0.1,3.7,0.1h124.4c1.2,0,2.5,0,3.7-0.1C483.8,501.6,476.8,506.1,468.7,506.1z M420.8,298.7
	c0.3-0.4,0.4-0.6,0.4-0.6C421.1,298.3,420.9,298.5,420.8,298.7z M540.9,429.5c-7.3,30.5-45.2,44-45.2,44l-19.5-111.2
	c-11-112.4-79.4-136.8-79.4-136.8c-44-11-0.7-37.8-0.7-37.8l87.4-0.1c46.4,0,57.4,53.8,57.4,53.8V429.5z"/>
</svg>
