<?xml version="1.0" encoding="utf-8"?>
<!-- Generator: Adobe Illustrator 18.1.1, SVG Export Plug-In . SVG Version: 6.00 Build 0)  -->
<!DOCTYPE svg PUBLIC "-//W3C//DTD SVG 1.1//EN" "http://www.w3.org/Graphics/SVG/1.1/DTD/svg11.dtd">
<svg version="1.1" id="Layer_1" xmlns="http://www.w3.org/2000/svg" xmlns:xlink="http://www.w3.org/1999/xlink" x="0px" y="0px"
	 viewBox="0 0 841.9 595.3" enable-background="new 0 0 841.9 595.3" xml:space="preserve">
<g>
	<path d="M542.2,170.7c0-4.2,0.9-8.1,2.2-11.9h-26v71.5h11.9c32.8,0,59.6,26.7,59.6,59.6v59.6
		c0,13.2,10.7,23.8,23.8,23.8s23.8-10.7,23.8-23.8V233.8c0-8-2.4-17.8-6-27.3H578C558.3,206.5,542.2,190.5,542.2,170.7z"/>
	<path d="M578,182.7c6.6,0,11.9-5.4,11.9-11.9c0-4.7-2.8-8.7-6.8-10.7c-2.4-0.6-4.6-0.7-6.8-0.9
		c-5.7,0.8-10.2,5.6-10.2,11.5C566.1,177.3,571.4,182.7,578,182.7z"/>
	<polygon points="305.8,476.6 296,503.4 315.6,503.4 306,476.6 	"/>
	<path d="M430.1,482.2c-1.6-2.3-3.7-4.1-6.2-5.4c-2.5-1.4-5.5-2.1-9-2.1s-6.5,0.7-9,2.1c-2.5,1.4-4.6,3.2-6.2,5.4
		c-1.6,2.2-2.8,4.8-3.5,7.6c-0.8,2.8-1.1,5.7-1.1,8.6c-0.1,2.9,0.3,5.7,1.1,8.6c0.8,2.8,1.9,5.4,3.5,7.6c1.6,2.2,3.7,4.1,6.2,5.4
		c2.5,1.4,5.5,2.1,9,2.1s6.5-0.7,9-2.1c2.5-1.4,4.6-3.2,6.2-5.4c1.6-2.3,2.8-4.8,3.5-7.6c0.8-2.8,1.1-5.7,1.1-8.6s-0.4-5.8-1.1-8.6
		C432.8,487,431.7,484.4,430.1,482.2z"/>
	<path d="M677.4,29.7H165.5c-6.6,0-12,5.4-12,12v511.9c0,6.6,5.4,12,12,12h511.9c6.6,0,12-5.4,12-12V41.7
		C689.4,35.1,684,29.7,677.4,29.7z M280.2,420.9h262v23.8h-262V420.9z M274.8,527H270l-2-7.2c-2.2,3.2-5,5.3-8.3,6.7
		c-3.3,1.3-6.7,2-10.1,2c-4.3,0-8.1-0.8-11.5-2.4c-3.4-1.6-6.3-3.7-8.6-6.4c-2.4-2.7-4.2-5.8-5.4-9.3c-1.2-3.5-1.9-7.1-1.9-10.9
		c0-4.2,0.6-8.2,1.7-12c1.2-3.8,2.9-7.1,5.2-10c2.3-2.8,5.1-5.1,8.5-6.8c3.4-1.7,7.4-2.5,12-2.5c3.1,0,6.1,0.4,8.8,1.1
		c2.8,0.7,5.2,1.9,7.4,3.4c2.2,1.6,4,3.5,5.5,5.9s2.5,5.3,3,8.7h-7.7c-0.4-2.2-1.1-4.1-2.1-5.7c-1-1.6-2.3-2.9-3.8-3.9
		c-1.5-1-3.2-1.8-5.1-2.3c-1.9-0.5-3.9-0.8-6.1-0.8c-3.5,0-6.5,0.7-9,2.1c-2.5,1.4-4.5,3.2-6.1,5.5c-1.6,2.3-2.8,4.9-3.5,7.8
		c-0.8,2.9-1.1,5.9-1.1,9c0,3,0.4,5.9,1.3,8.7c0.9,2.8,2.1,5.2,3.8,7.3s3.7,3.8,6.2,5.1c2.4,1.3,5.3,1.9,8.5,1.9c3,0,5.7-0.5,8-1.5
		c2.3-1,4.3-2.3,5.8-4c1.6-1.7,2.8-3.7,3.6-6c0.8-2.3,1.2-4.7,1-7.4h-18.4v-6.4h25.2V527z M324.3,527.1l-6.3-17.3h-24.3l-6.4,17.3
		h-7.8l22.4-57.5h8.4l22.5,57.5H324.3z M379.2,519.2c-1.4,2.2-3.1,3.9-5.3,5.3c-2.1,1.4-4.6,2.4-7.2,3c-2.7,0.6-5.3,0.9-7.9,0.9
		c-3.2,0-6.3-0.4-9.1-1.2c-2.9-0.8-5.4-2-7.6-3.7c-2.2-1.6-3.9-3.7-5.2-6.3c-1.3-2.6-1.9-5.6-1.9-9.1h7.3c0,2.4,0.5,4.5,1.4,6.2
		c0.9,1.7,2.2,3.2,3.7,4.3s3.3,2,5.4,2.5c2,0.5,4.1,0.8,6.3,0.8c1.7,0,3.5-0.2,5.2-0.5c1.7-0.3,3.3-0.9,4.7-1.7
		c1.4-0.8,2.5-1.8,3.4-3.2c0.9-1.3,1.3-3.1,1.3-5.2c0-2-0.5-3.6-1.6-4.8c-1-1.2-2.4-2.2-4.2-3c-1.7-0.8-3.7-1.4-5.9-1.9
		c-2.2-0.5-4.4-1-6.7-1.5c-2.3-0.5-4.5-1.1-6.7-1.8c-2.2-0.7-4.2-1.6-5.9-2.7c-1.7-1.1-3.1-2.5-4.2-4.3c-1-1.7-1.6-3.9-1.6-6.6
		c0-2.9,0.6-5.4,1.8-7.5c1.2-2.1,2.8-3.9,4.7-5.2c2-1.4,4.2-2.4,6.7-3.1c2.5-0.7,5.1-1,7.7-1c3,0,5.7,0.4,8.2,1
		c2.5,0.7,4.7,1.8,6.6,3.3c1.9,1.5,3.4,3.4,4.5,5.7c1.1,2.3,1.7,5,1.8,8.2h-7.3c-0.4-3.8-1.8-6.8-4.4-8.6c-2.6-1.9-5.8-2.8-9.8-2.8
		c-1.6,0-3.2,0.2-4.8,0.5c-1.6,0.3-2.9,0.9-4.1,1.6c-1.2,0.8-2.2,1.8-2.9,3c-0.7,1.3-1.1,2.8-1.1,4.7c0,1.8,0.5,3.2,1.6,4.3
		c1,1.1,2.4,2,4.2,2.7c1.7,0.7,3.7,1.3,5.9,1.7c2.2,0.5,4.4,1,6.7,1.5c2.3,0.5,4.5,1.2,6.7,1.9c2.2,0.7,4.2,1.7,5.9,2.9
		s3.1,2.8,4.2,4.7c1,1.9,1.6,4.2,1.6,7.1C381.3,514.4,380.6,517,379.2,519.2z M440.7,509.7c-1.2,3.6-2.9,6.8-5.2,9.6
		c-2.3,2.8-5.2,5-8.6,6.6c-3.4,1.6-7.4,2.5-12,2.5s-8.6-0.8-12-2.5c-3.4-1.6-6.3-3.9-8.6-6.6c-2.3-2.8-4-6-5.2-9.6
		c-1.2-3.6-1.7-7.4-1.7-11.3c0-3.9,0.6-7.7,1.7-11.3c1.2-3.6,2.9-6.8,5.2-9.6c2.3-2.8,5.2-5,8.6-6.7s7.4-2.5,12-2.5s8.6,0.8,12,2.5
		c3.4,1.7,6.3,3.9,8.6,6.7s4,6,5.2,9.6c1.2,3.6,1.7,7.4,1.7,11.3C442.4,502.3,441.8,506.1,440.7,509.7z M490,527.1h-38.1v-57.5h7.6
		v51.1H490V527.1z M504.6,527.1H497v-57.5h7.6V527.1z M563.4,527.1H555L524.8,481h-0.2v46.2h-7.3v-57.5h8.3v-0.1l30.3,46.7h0.2
		v-46.7h7.3V527.1z M615.6,527h-40v-57.5h39.8v0.1v6.4h-32.1v18.3h29.9v6.4h-29.9v19.9h32.3V527z M661.3,349.4
		c0,26.3-21.4,47.6-47.6,47.6c-26.2,0-47.6-21.4-47.6-47.6v-59.6c0-19.7-16-35.7-35.7-35.7h-11.9V397H304V87.4
		c0-13.1,10.7-23.8,23.8-23.8h166.8c13.1,0,23.8,10.7,23.8,23.8V135h55.2c0.6,0,1.3,0.2,2,0.2c0.8,0,1.6-0.2,2.4-0.2
		c5.1,0,9.9,1.1,14.3,3.1c14.2,3.9,28.8,11.3,37.8,20.3c17.5,17.5,31.2,50.6,31.2,75.4V349.4z"/>
	<path d="M458.9,111.2h-95.3c-6.5,0-11.9,5.4-11.9,11.9v71.5c0,6.6,5.4,11.9,11.9,11.9h95.3
		c6.5,0,11.9-5.4,11.9-11.9v-71.5C470.8,116.5,465.4,111.2,458.9,111.2z"/>
</g>
</svg>
