<?xml version="1.0" encoding="utf-8"?>
<!-- Generator: Adobe Illustrator 18.1.1, SVG Export Plug-In . SVG Version: 6.00 Build 0)  -->
<!DOCTYPE svg PUBLIC "-//W3C//DTD SVG 1.1//EN" "http://www.w3.org/Graphics/SVG/1.1/DTD/svg11.dtd">
<svg version="1.1" id="Layer_1" xmlns="http://www.w3.org/2000/svg" xmlns:xlink="http://www.w3.org/1999/xlink" x="0px" y="0px"
	 viewBox="0 0 841.9 595.3" enable-background="new 0 0 841.9 595.3" xml:space="preserve">
<path d="M631.5,355.4L464.7,232.8V154c0-21.6-21.6-86.4-43.2-86.4s-43.2,64.8-43.2,86.4v78.8L211.5,355.4c-3.8,2.7-6,7-6,11.7v2.9
	c0,4.4,2,8.7,5.5,11.4c3.5,2.8,8,3.7,12.3,2.6l154.9-41.7V370v92.9L327.1,500c-4,2.7-6.4,7.2-6.4,12v2c0,4.5,2.1,8.8,5.7,11.5
	c3.6,2.8,8.3,3.6,12.6,2.4l82.5-28.2l82.5,27.8c4.3,1.2,9,0.4,12.6-2.4c3.6-2.7,5.7-7,5.7-11.5v-2c0-4.8-2.4-9.3-6.4-12l-51.2-36.9
	V370v-27.7L619.7,384c4.3,1.1,8.9,0.1,12.3-2.6c3.5-2.7,5.5-6.9,5.5-11.4v-2.9C637.5,362.4,635.3,358.1,631.5,355.4z"/>
</svg>
