<?xml version="1.0" encoding="utf-8"?>
<!-- Generator: Adobe Illustrator 18.1.1, SVG Export Plug-In . SVG Version: 6.00 Build 0)  -->
<!DOCTYPE svg PUBLIC "-//W3C//DTD SVG 1.1//EN" "http://www.w3.org/Graphics/SVG/1.1/DTD/svg11.dtd">
<svg version="1.1" id="Layer_1" xmlns="http://www.w3.org/2000/svg" xmlns:xlink="http://www.w3.org/1999/xlink" x="0px" y="0px"
	 viewBox="0 0 841.9 595.3" enable-background="new 0 0 841.9 595.3" xml:space="preserve">
<g>
	<path d="M380,232.9c21.1-16.2,47.3-34.2,49.8-74.9c17.1,25.1,28.3,50.5,34,74c31.7-34.3,2-103.8-70.2-151.9
		C419,156.3,326.4,185.1,380,232.9z"/>
	<path d="M516.2,270.8H325.5c-7.5,0-13.6,6.1-13.6,13.6v218c0,7.5,6.1,13.6,13.6,13.6h190.7c7.5,0,13.6-6.1,13.6-13.6v-218
		C529.8,276.9,523.7,270.8,516.2,270.8z M366.3,488.7h-27.2V298h27.2V488.7z"/>
</g>
</svg>
