<?xml version="1.0" encoding="utf-8"?>
<!-- Generator: Adobe Illustrator 18.1.1, SVG Export Plug-In . SVG Version: 6.00 Build 0)  -->
<!DOCTYPE svg PUBLIC "-//W3C//DTD SVG 1.1//EN" "http://www.w3.org/Graphics/SVG/1.1/DTD/svg11.dtd">
<svg version="1.1" id="Layer_1" xmlns="http://www.w3.org/2000/svg" xmlns:xlink="http://www.w3.org/1999/xlink" x="0px" y="0px"
	 viewBox="0 0 841.9 595.3" enable-background="new 0 0 841.9 595.3" xml:space="preserve">
<g>
	<path d="M562,184.7c6.6,0,11.9-5.4,11.9-11.9c0-4.7-2.8-8.7-6.8-10.7c-2.4-0.6-4.6-0.7-6.8-0.9
		c-5.7,0.8-10.2,5.6-10.2,11.5C550.1,179.3,555.4,184.7,562,184.7z"/>
	<path d="M526.2,172.7c0-4.2,0.9-8.1,2.2-11.9h-26v71.5h11.9c32.8,0,59.6,26.7,59.6,59.6v59.6
		c0,13.2,10.7,23.8,23.8,23.8s23.8-10.7,23.8-23.8V235.8c0-8-2.4-17.8-6-27.3H562C542.3,208.5,526.2,192.5,526.2,172.7z"/>
	<path d="M442.9,113.2h-95.3c-6.5,0-11.9,5.4-11.9,11.9v71.5c0,6.6,5.4,11.9,11.9,11.9h95.3
		c6.5,0,11.9-5.4,11.9-11.9v-71.5C454.8,118.5,449.4,113.2,442.9,113.2z"/>
	<path d="M391.3,478h-15v21.1h15v0.1c4.4,0.1,7.5-0.8,9.5-2.7c2-1.8,3-4.5,3-7.9c0-3.4-1-6.1-3-7.9
		S395.6,478,391.3,478z"/>
	<path d="M661.4,31.7H149.5c-6.6,0-12,5.4-12,12v511.9c0,6.6,5.4,12,12,12h511.9c6.6,0,12-5.4,12-12V43.7
		C673.4,37.1,668,31.7,661.4,31.7z M362,529.1h-38.1v-57.5h7.6v51.1H362V529.1z M407.1,501.2c-3,3-7.4,4.5-13.2,4.4h-17.6v23.5h-7.7
		v-57.5h25.3c5.8,0,10.2,1.5,13.2,4.5c3,3,4.5,7.2,4.5,12.5C411.6,494,410.1,498.2,407.1,501.2z M470.6,529h-4.8l-2-7.2
		c-2.2,3.2-5,5.3-8.3,6.7c-3.3,1.3-6.7,2-10.1,2c-4.3,0-8.1-0.8-11.5-2.4c-3.4-1.6-6.3-3.7-8.6-6.4c-2.4-2.7-4.2-5.8-5.4-9.3
		s-1.9-7.1-1.9-10.9c0-4.2,0.6-8.2,1.7-12c1.2-3.8,2.9-7.1,5.2-10c2.3-2.8,5.1-5.1,8.5-6.8c3.4-1.7,7.4-2.5,12-2.5
		c3.1,0,6.1,0.4,8.8,1.1c2.8,0.7,5.2,1.9,7.4,3.4c2.2,1.6,4,3.5,5.5,5.9s2.5,5.3,3,8.7h-7.7c-0.4-2.2-1.1-4.1-2.1-5.7
		c-1-1.6-2.3-2.9-3.8-3.9c-1.5-1-3.2-1.8-5.1-2.3c-1.9-0.5-3.9-0.8-6.1-0.8c-3.5,0-6.5,0.7-9,2.1c-2.5,1.4-4.5,3.2-6.1,5.5
		c-1.6,2.3-2.8,4.9-3.5,7.8c-0.8,2.9-1.1,5.9-1.1,9c0,3,0.4,5.9,1.3,8.7c0.9,2.8,2.1,5.2,3.8,7.3s3.7,3.8,6.2,5.1
		c2.4,1.3,5.3,1.9,8.5,1.9c3,0,5.7-0.5,8-1.5c2.3-1,4.3-2.3,5.8-4c1.6-1.7,2.8-3.7,3.6-6c0.8-2.3,1.2-4.7,1-7.4h-18.4v-6.4h25.2V529
		z M526.2,446.7h-262v-23.8h262V446.7z M645.3,351.4c0,26.3-21.4,47.6-47.6,47.6s-47.6-21.4-47.6-47.6v-59.6
		c0-19.7-16-35.7-35.7-35.7h-11.9V399H288V89.4c0-13.1,10.7-23.8,23.8-23.8h166.8c13.1,0,23.8,10.7,23.8,23.8V137h55.2
		c0.6,0,1.3,0.2,2,0.2c0.8,0,1.6-0.2,2.4-0.2c5.1,0,9.9,1.1,14.3,3.1c14.2,3.9,28.8,11.3,37.8,20.3c17.5,17.5,31.2,50.6,31.2,75.4
		V351.4z"/>
</g>
</svg>
