<?xml version="1.0" encoding="utf-8"?>
<!-- Generator: Adobe Illustrator 18.1.1, SVG Export Plug-In . SVG Version: 6.00 Build 0)  -->
<!DOCTYPE svg PUBLIC "-//W3C//DTD SVG 1.1//EN" "http://www.w3.org/Graphics/SVG/1.1/DTD/svg11.dtd">
<svg version="1.1" id="Layer_1" xmlns="http://www.w3.org/2000/svg" xmlns:xlink="http://www.w3.org/1999/xlink" x="0px" y="0px"
	 viewBox="0 0 841.9 595.3" enable-background="new 0 0 841.9 595.3" xml:space="preserve">
<path d="M613,4414c0,0-5,7.2-5,10.4s2.2,5.6,5,5.6c2.8,0,5-2.5,5-5.6S613,4414,613,4414z M611.8,4420.3c-1,1.9-1.8,3.8-1.8,5.1
	c0,1,0.2,1.9,0.6,2.6h0c-0.9-0.9-1.6-2.2-1.6-3.6c0-1.8,2.2-5.8,4-8.6C613,4415.8,612.4,4417.6,611.8,4420.3z"/>
<path d="M421,85.2c0,0-133,192.6-133,275.5s59.5,150.1,133,150.1c73.5,0,133-67.2,133-150.1S421,85.2,421,85.2z M389.2,252.5
	c-26,49.6-47.9,101.1-47.9,134.8c0,25.4,5.7,49.3,15.5,70.3h-0.9c-24.9-22.7-41.2-57.4-41.2-96.9c0-46.8,58.4-153,106.4-227.4
	C421,133.3,404,179.7,389.2,252.5z"/>
</svg>
