<?xml version="1.0" encoding="utf-8"?>
<!-- Generator: Adobe Illustrator 18.1.1, SVG Export Plug-In . SVG Version: 6.00 Build 0)  -->
<!DOCTYPE svg PUBLIC "-//W3C//DTD SVG 1.1//EN" "http://www.w3.org/Graphics/SVG/1.1/DTD/svg11.dtd">
<svg version="1.1" id="Layer_1" xmlns="http://www.w3.org/2000/svg" xmlns:xlink="http://www.w3.org/1999/xlink" x="0px" y="0px"
	 viewBox="0 0 841.9 595.3" enable-background="new 0 0 841.9 595.3" xml:space="preserve">
<g>
	<path d="M542.2,170.7c0-4.2,0.9-8.1,2.2-11.9h-26v71.5h11.9c32.8,0,59.6,26.7,59.6,59.6v59.6
		c0,13.2,10.7,23.8,23.8,23.8s23.8-10.7,23.8-23.8V233.8c0-8-2.4-17.8-6-27.3H578C558.3,206.5,542.2,190.5,542.2,170.7z"/>
	<path d="M578,182.7c6.6,0,11.9-5.4,11.9-11.9c0-4.7-2.8-8.7-6.8-10.7c-2.4-0.6-4.6-0.7-6.8-0.9
		c-5.7,0.8-10.2,5.6-10.2,11.5C566.1,177.3,571.4,182.7,578,182.7z"/>
	<path d="M358.1,485.9c0-2.9-0.8-5.3-2.4-7.1c-1.6-1.8-4.2-2.7-7.8-2.7h-19v20.1h16c1.7-0.1,3.4-0.2,5-0.5
		c1.6-0.3,3-0.8,4.2-1.6c1.2-0.8,2.2-1.8,2.9-3.1C357.7,489.7,358.1,488,358.1,485.9z"/>
	<path d="M677.4,29.7H165.5c-6.6,0-12,5.4-12,12v511.9c0,6.6,5.4,12,12,12h511.9c6.6,0,12-5.4,12-12V41.7
		C689.4,35.1,684,29.7,677.4,29.7z M280.2,420.9h262v23.8h-262V420.9z M307.5,499.2c-3,3-7.4,4.5-13.2,4.4h-17.6v23.5H269v-57.5
		h25.3c5.8,0,10.2,1.5,13.2,4.5c3,3,4.5,7.2,4.5,12.5C312,492,310.5,496.2,307.5,499.2z M359.3,527.1c-0.5-0.6-0.9-1.4-1.1-2.4
		c-0.2-1-0.3-2.2-0.4-3.4c-0.1-1.3-0.1-2.6-0.2-4.1c-0.1-1.5-0.2-2.9-0.5-4.3c-0.2-1.4-0.5-2.7-0.8-4c-0.3-1.3-0.8-2.4-1.5-3.3
		c-0.7-0.9-1.6-1.7-2.7-2.3s-2.6-0.8-4.5-0.8h-18.7v24.6h-7.7v-57.5h27.1v0c5.5,0,9.8,1.3,12.9,4c3.1,2.7,4.6,6.4,4.6,11
		c0,3.5-0.8,6.6-2.4,9.2s-4.1,4.4-7.6,5.4v0.2c1.7,0.3,3,0.9,4.1,1.6c1,0.8,1.9,1.7,2.5,2.7c0.6,1,1.1,2.2,1.4,3.5
		c0.3,1.3,0.5,2.6,0.7,4c0.1,1.4,0.2,2.8,0.2,4.3c0.1,1.5,0.2,2.9,0.4,4.3c0.2,1.4,0.5,2.7,0.9,4s1,2.4,1.8,3.3H359.3z M416.4,527
		h-40v-57.5h39.8v0.1v6.4h-32.1v18.3H414v6.4h-29.9v19.9h32.3V527z M483.1,527.1h-7.3v-47.9h-0.2l-18,47.9h-6.5l-18-47.9h-0.2v47.9
		h-7.3v-57.5h10.7v0l18.1,48.3l18.2-48.3h10.5V527.1z M503.8,527.1h-7.7v-57.5h7.7V527.1z M550.4,527.2l-15.5-23.8l-16,23.8h-8.5
		l20-29.6l-18.9-28h9.2l14.3,22.5l15-22.5h8.5l-19,28l20.2,29.6H550.4z M661.3,349.4c0,26.3-21.4,47.6-47.6,47.6
		c-26.2,0-47.6-21.4-47.6-47.6v-59.6c0-19.7-16-35.7-35.7-35.7h-11.9V397H304V87.4c0-13.1,10.7-23.8,23.8-23.8h166.8
		c13.1,0,23.8,10.7,23.8,23.8V135h55.2c0.6,0,1.3,0.2,2,0.2c0.8,0,1.6-0.2,2.4-0.2c5.1,0,9.9,1.1,14.3,3.1
		c14.2,3.9,28.8,11.3,37.8,20.3c17.5,17.5,31.2,50.6,31.2,75.4V349.4z"/>
	<path d="M291.7,476h-15v21.1h15v0.1c4.4,0.1,7.5-0.8,9.5-2.7c2-1.8,3-4.5,3-7.9s-1-6.1-3-7.9S296,476,291.7,476z"/>
	<path d="M458.9,111.2h-95.3c-6.5,0-11.9,5.4-11.9,11.9v71.5c0,6.6,5.4,11.9,11.9,11.9h95.3
		c6.5,0,11.9-5.4,11.9-11.9v-71.5C470.8,116.5,465.4,111.2,458.9,111.2z"/>
</g>
</svg>
