<?xml version="1.0" encoding="utf-8"?>
<!-- Generator: Adobe Illustrator 18.1.1, SVG Export Plug-In . SVG Version: 6.00 Build 0)  -->
<!DOCTYPE svg PUBLIC "-//W3C//DTD SVG 1.1//EN" "http://www.w3.org/Graphics/SVG/1.1/DTD/svg11.dtd">
<svg version="1.1" id="Layer_1" xmlns="http://www.w3.org/2000/svg" xmlns:xlink="http://www.w3.org/1999/xlink" x="0px" y="0px"
	 viewBox="0 0 841.9 595.3" enable-background="new 0 0 841.9 595.3" xml:space="preserve">
<path d="M481.9,314.9v-47.4V115.2c0-33.5-27.4-60.9-60.9-60.9s-60.9,27.4-60.9,60.9v152.3v47.4c-36.3,21.1-60.9,60-60.9,105
	c0,67.3,54.6,121.9,121.9,121.9s121.9-54.6,121.9-121.9C542.9,374.9,518.2,336,481.9,314.9z M390.5,237.1H421v-30.5h-30.5v-30.5H421
	v-30.5h-30.5v-30.5c0-16.8,13.7-30.5,30.5-30.5s30.5,13.7,30.5,30.5v152.3h-60.9V237.1z M421,511.2c-50.5,0-91.4-40.9-91.4-91.4
	c0-5.2,0.7-10.2,1.5-15.2c7.3,43.2,44.6,76.2,89.9,76.2c45.2,0,82.6-33,89.9-76.2c0.8,5,1.5,10.1,1.5,15.2
	C512.4,470.4,471.5,511.2,421,511.2z"/>
</svg>
