<?xml version="1.0" encoding="utf-8"?>
<!-- Generator: Adobe Illustrator 18.1.1, SVG Export Plug-In . SVG Version: 6.00 Build 0)  -->
<!DOCTYPE svg PUBLIC "-//W3C//DTD SVG 1.1//EN" "http://www.w3.org/Graphics/SVG/1.1/DTD/svg11.dtd">
<svg version="1.1" id="Layer_1" xmlns="http://www.w3.org/2000/svg" xmlns:xlink="http://www.w3.org/1999/xlink" x="0px" y="0px"
	 viewBox="0 0 841.9 595.3" enable-background="new 0 0 841.9 595.3" xml:space="preserve">
<g>
	<path d="M421.5,50.7c-136.3,0-246.8,110.5-246.8,246.8s110.5,246.8,246.8,246.8s246.8-110.5,246.8-246.8S557.8,50.7,421.5,50.7z
		 M421.5,478.5c-99.8,0-181-81.2-181-181s81.2-181,181-181s181,81.2,181,181S521.3,478.5,421.5,478.5z"/>
	<path d="M438,349.9v-85.3c0-9.1-7.4-16.5-16.5-16.5s-16.5,7.4-16.5,16.5v85.3c-19.1,6.8-32.9,24.9-32.9,46.3
		c0,27.3,22.1,49.4,49.4,49.4s49.4-22.1,49.4-49.4C470.9,374.8,457.1,356.7,438,349.9z"/>
	<path d="M355.7,182.3c-9.1,0-16.5,7.4-16.5,16.5c0,9.1,7.4,16.5,16.5,16.5s16.5-7.3,16.5-16.5C372.1,189.7,364.8,182.3,355.7,182.3
		z"/>
	<path d="M322.8,248.1c-9.1,0-16.5,7.4-16.5,16.5c0,9.1,7.4,16.5,16.5,16.5s16.5-7.3,16.5-16.5C339.2,255.5,331.9,248.1,322.8,248.1
		z"/>
	<path d="M421.5,182.3c9.1,0,16.5-7.3,16.5-16.5c0-9.1-7.4-16.5-16.5-16.5s-16.5,7.4-16.5,16.5C405,175,412.4,182.3,421.5,182.3z"/>
	<path d="M487.3,182.3c-9.1,0-16.5,7.4-16.5,16.5c0,9.1,7.4,16.5,16.5,16.5s16.5-7.3,16.5-16.5C503.8,189.7,496.4,182.3,487.3,182.3
		z"/>
	<path d="M520.2,248.1c-9.1,0-16.5,7.4-16.5,16.5c0,9.1,7.4,16.5,16.5,16.5s16.5-7.3,16.5-16.5C536.7,255.5,529.3,248.1,520.2,248.1
		z"/>
</g>
</svg>
