<?xml version="1.0" encoding="utf-8"?>
<!-- Generator: Adobe Illustrator 18.1.1, SVG Export Plug-In . SVG Version: 6.00 Build 0)  -->
<!DOCTYPE svg PUBLIC "-//W3C//DTD SVG 1.1//EN" "http://www.w3.org/Graphics/SVG/1.1/DTD/svg11.dtd">
<svg version="1.1" id="Layer_1" xmlns="http://www.w3.org/2000/svg" xmlns:xlink="http://www.w3.org/1999/xlink" x="0px" y="0px"
	 viewBox="0 0 841.9 595.3" enable-background="new 0 0 841.9 595.3" xml:space="preserve">
<g>
	<path d="M568.9,124.3c-5.6-5.6-39-33.5-147.8-33.5c-108.8,0-142.2,27.9-147.8,33.5l-9.3,9.3l2,13l50,323.9
		c2.8,19.4,20.5,34.8,40.4,34.8h129.5c19.9,0,37.6-15.4,40.4-35.1l49.9-323.6l2-13L568.9,124.3z M500.6,466.5
		c-1,7.1-7.7,12.9-14.8,12.9H356.3c-7.1,0-13.8-5.8-14.8-12.9l-50-323.9c0,0,25.9-25.9,129.5-25.9s129.5,25.9,129.5,25.9
		L500.6,466.5z"/>
	<polygon points="395.2,427.5 369.3,194.4 323.4,194.4 363.3,453.4 474,453.4 514,194.4 395.2,194.4 	"/>
</g>
</svg>
