<svg xmlns="http://www.w3.org/2000/svg" xmlns:svg="http://www.w3.org/2000/svg" viewBox="0 0 1560 1560" width="18" height="18">
    <g>
        <circle fill="${backgroundColor}" stroke="none" cx="780" cy="780" r="770"/>
        <g style="fill: ${color}; stroke: none;">
            <circle r="80" cy="780" cx="780"/>
            <path d="m715.0296,176.51082c-82.49176,12.40086 -143.95697,31.27121 -204.8822,61.46432c-122.92953,62.00426 -225.90973,170.37581 -280.36548,295.4615c-33.96735,77.1004 -35.04546,71.16992 17.2532,71.16992l45.2901,0l15.0961,-35.58539c98.12784,-224.83075 342.36975,-348.29933 584.99268,-296.00058c136.4068,29.65402 263.64777,122.9295 336.43732,248.55429c2.1582,3.77423 -38.81689,22.64551 -90.58179,43.133c-51.7561,20.4884 -94.35181,38.28064 -94.35181,39.89868l339.13635,172.53204c22.10815,-82.49176 85.72864,-342.3689 85.19141,-342.90793c-0.54626,-0.53906 -33.98181,11.86093 -73.87317,28.03598c-39.8916,16.17523 -74.93896,29.11505 -78.17126,29.11505c-2.70422,0 -12.40186,-11.86182 -20.49646,-26.95795c-8.08594,-14.55792 -28.57349,-43.13297 -44.74487,-63.08234c-97.59326,-119.69431 -232.38281,-197.87277 -379.57318,-219.97833c-46.90723,-7.54849 -123.46857,-9.70471 -156.35693,-4.85236l0,0l0,0l0,0l0,0l0,0l0,0l0,0.00002l0,0.00003l0,0.00003z"/>
            <path d="m91.21716,1120.04187c0.53914,0.54626 33.96727,-11.85559 73.86536,-28.03601c39.89771,-16.17139 74.94406,-29.11047 78.17836,-29.11047c2.69615,0 11.8618,11.8645 19.94936,25.87793c32.35019,57.69275 102.4411,132.09436 173.61102,183.85925c40.43686,29.64783 129.39902,71.7063 181.15866,86.26611c288.992,78.71741 593.61652,-65.77856 711.69733,-338.06079c33.96362,-77.09772 35.04736,-71.16724 -17.25488,-71.16724l-45.29126,0l-15.09692,35.5827c-118.07178,270.66156 -441.03387,386.04706 -706.30231,251.79474c-84.1098,-42.5957 -153.66165,-106.76245 -208.11655,-193.56555l-10.78369,-16.70801l94.35358,-37.2052c51.75961,-20.4884 94.35355,-38.28064 94.35355,-39.89868l-339.13359,-172.53204l-85.188,342.90326z"/>
        </g>
    </g>
</svg>
